<svg xmlns="http://www.w3.org/2000/svg" xml:space="preserve" width="16" height="16" viewBox="0 0 1000 1000">
    <g fill="currentColor">
        <path d="M489.46 250.4c14.9 9.9 38.1 9.9 53.1-1.7l262-207.3c14.9-11.6 21.6-6.6 14.9 11.6l-293.5 898.9c-5 16.6-14.9 18.2-21.6 0l-325-898.7c-6.6-16.6 1.7-23.2 14.9-11.6z"/>
        <path d="M182.76 10c8.3 0 16.6 3.3 26.5 9.9l293.5 210.6c5 3.3 18.2 3.3 23.2 0l263.7-207.2c19.9-16.6 41.5-14.9 51.4 0 6.6 9.9 8.3 21.6 3.3 38.1l-293.5 898.8c-9.9 26.5-28.2 29.8-34.8 29.8-6.6 0-24.9-3.3-34.8-29.8l-325-898.7c-5-14.9-5-28.2 1.7-38.1 4.9-8.4 14.8-13.4 24.8-13.4zm331.6 273.6c-14.9 0-28.2-5-39.8-11.6L219.16 89.6l295.2 817.5 267-814.2-223.9 177.4c-11.6 8.3-26.5 13.3-43.1 13.3z"/>
    </g>
</svg>
